<?xml version="1.0" encoding="UTF-8"?>
<svg width="128px" height="128px" viewBox="0 0 128 128" version="1.1" xmlns="http://www.w3.org/2000/svg" xmlns:xlink="http://www.w3.org/1999/xlink">
    <!-- Generator: Sketch 49.3 (51167) - http://www.bohemiancoding.com/sketch -->
    <title>Untitled</title>
    <desc>Created with Sketch.</desc>
    <defs></defs>
    <g id="Page-1" stroke="none" stroke-width="1" fill="none" fill-rule="evenodd">
        <g id="icon" fill-rule="nonzero">
            <circle id="circle" fill="#24488E" cx="64" cy="64" r="64"></circle>
            <g transform="translate(29.000000, 33.000000)">
                <path d="M66,63 L4,63 C1.8,63 0,61.2 0,59 L0,4 C0,1.8 1.8,0 4,0 L66,0 C68.2,0 70,1.8 70,4 L70,59 C70,61.2 68.2,63 66,63 Z" id="bg" fill="#FFFFFF"></path>
                <g id="text" transform="translate(10.000000, 24.000000)" fill="#E6E6E6">
                    <rect id="XMLID_2_" x="17" y="0" width="33" height="4"></rect>
                    <rect id="XMLID_7_" x="17" y="8" width="33" height="4"></rect>
                    <rect id="XMLID_8_" x="0" y="16" width="50" height="4"></rect>
                    <rect id="XMLID_9_" x="0" y="24" width="50" height="4"></rect>
                </g>
                <rect id="img" fill-opacity="0.569661458" fill="#274A9F" x="10" y="24" width="12" height="12"></rect>
                <path d="M66,0 L4,0 C1.8,0 0,1.8 0,4 L0,8.1 L0,9 L0,13 L70,13 L70,9 L70,8.1 L70,4 C70,1.8 68.2,0 66,0 Z" id="header" fill="#E6E6E6"></path>
                <circle id="red" fill="#CF000F" cx="7" cy="6.8" r="2"></circle>
                <circle id="orange" fill="#E67E22" cx="13" cy="6.8" r="2"></circle>
                <circle id="green" fill="#26A65B" cx="19" cy="6.8" r="2"></circle>
            </g>
        </g>
    </g>
</svg>